<svg xmlns="http://www.w3.org/2000/svg" width="64" height="64" viewBox="0 0 64 64">
  <defs>
    <linearGradient id="grad" x1="0%" y1="0%" x2="100%" y2="100%">
      <stop offset="0%" style="stop-color:#f43f5e;stop-opacity:1" />
      <stop offset="100%" style="stop-color:#ea580c;stop-opacity:1" />
    </linearGradient>
  </defs>
  
  <!-- Background circle -->
  <circle cx="32" cy="32" r="30" fill="url(#grad)" />
  
  <!-- Magic wand -->
  <g transform="translate(16, 18)">
    <!-- Wand stick -->
    <rect x="20" y="15" width="2.5" height="18" rx="1.25" fill="white" transform="rotate(45 21.25 24)" />
    
    <!-- Magic stars -->
    <g fill="white" opacity="0.9">
      <!-- Main star -->
      <path d="M26 12 L28 16 L32 16 L29 19 L30 23 L26 21 L22 23 L23 19 L20 16 L24 16 Z" />
      <!-- Small stars -->
      <circle cx="12" cy="8" r="1" />
      <circle cx="10" cy="14" r="0.8" />
      <circle cx="6" cy="18" r="1.2" />
    </g>
  </g>
  
  <!-- Map pin -->
  <g transform="translate(8, 25)">
    <path d="M16 8c-4.4 0-8 3.6-8 8 0 8 8 16 8 16s8-8 8-16c0-4.4-3.6-8-8-8z" fill="white" />
    <circle cx="16" cy="16" r="3" fill="url(#grad)" />
  </g>
</svg>